<svg width="0" height="0" class="hidden">
  <symbol xmlns="http://www.w3.org/2000/svg" viewBox="0 0 18 15" id="cart-icon">
    <path d="M17.73 3.66l-2.48 5.5c-.12.27-.38.47-.7.49l-7.12.47.41 1.18h7.76c.91 0 1.65.74 1.65 1.65 0 .91-.74 1.65-1.65 1.65-.91 0-1.65-.74-1.65-1.65h-7.7c0 .91-.74 1.65-1.65 1.65-.91 0-1.65-.74-1.65-1.65 0-.91.74-1.65 1.65-1.65h1.49L2.91 2.22H1.02a.826.826 0 010-1.65H3.5c.36 0 .66.24.78.56l.48 1.37h12.21a.826.826 0 01.76 1.16zm-12.39.49l1.52 4.36 7.09-.48 1.75-3.88H5.34z"></path>
  </symbol>
  <symbol xmlns="http://www.w3.org/2000/svg" viewBox="0 0 12 26" id="facebook">
    <path d="M12.09.2v4.12s-3.04-.3-3.8.86c-.41.64-.17 2.5-.2 3.84h4.02c-.34 1.56-.58 2.62-.83 3.98H8.06v12.8H2.48V13.05H.11V9.02h2.34c.13-2.95.17-5.87 1.63-7.35C5.73 0 7.3.2 12.09.2z" ></path>
  </symbol>
  <symbol xmlns="http://www.w3.org/2000/svg" viewBox="0 0 26 26" id="instagram">
    <path d="M22.7 25.8H3.5c-1.77 0-3.2-1.43-3.2-3.2V3.4C.3 1.63 1.73.2 3.5.2h19.2c1.77 0 3.2 1.43 3.2 3.2v19.2c0 1.77-1.43 3.2-3.2 3.2zM13.1 8.04c-2 0-3.71 1.18-4.5 2.88-.01.02-.02.04-.02.05-.05.11-.09.22-.13.33l-.06.15c-.04.11-.07.23-.1.34-.01.05-.03.11-.04.16-.02.12-.04.24-.06.37 0 .05-.02.1-.02.15a4.96 4.96 0 004.93 5.49 4.96 4.96 0 004.93-5.49c0-.05-.02-.1-.02-.15-.02-.13-.04-.25-.06-.37-.02-.05-.03-.11-.04-.16-.03-.11-.06-.23-.1-.34l-.06-.15c-.04-.11-.08-.22-.13-.33 0-.01-.01-.03-.02-.05-.79-1.7-2.5-2.88-4.5-2.88zm9.92-3.68c0-.71-.57-1.28-1.28-1.28h-2.56c-.71 0-1.28.57-1.28 1.28v2.56c0 .71.57 1.28 1.28 1.28h2.56c.71 0 1.28-.57 1.28-1.28V4.36zm0 6.56h-2.36a7.84 7.84 0 11-15.12 0H3.18v10.72c0 .71.57 1.28 1.28 1.28h17.28c.71 0 1.28-.57 1.28-1.28V10.92z" ></path>
  </symbol>
  <symbol xmlns="http://www.w3.org/2000/svg" viewBox="0 0 20 26" id="pinterest">
    <path d="M8.05 16.85c-.21.84-.42 1.71-.64 2.56-.21.85-.4 1.7-.71 2.47-.52 1.29-1.18 2.52-2.05 3.53-.57.66-.45.4-.62.36-.14-.03-.15-.16-.17-.34-.14-1.02-.05-2.2 0-3.34.06-1.31.34-2.39.59-3.48.49-2.06.95-4.08 1.44-6.16.03-.14.12-.37.09-.44-.22-.58-.37-1.1-.43-1.7-.07-.7-.02-1.35.14-1.95.27-1.06.91-1.99 1.89-2.34.63-.21 1.32-.11 1.74.14.43.25.73.66.86 1.24.15.62.04 1.35-.08 1.89-.26 1.22-.61 2.14-.93 3.31-.16.59-.34 1.19-.19 1.81.13.58.43.98.85 1.28.42.31.92.48 1.62.46 1.23-.05 2.08-.83 2.65-1.57.91-1.19 1.47-2.79 1.68-4.69.06-.61.11-1.32.07-2.01-.09-1.29-.49-2.32-1.13-3.12a5.325 5.325 0 00-2.51-1.71c-1.04-.34-2.48-.45-3.75-.23-2.32.39-3.95 1.71-4.91 3.53-.51.95-.84 2.05-.84 3.41 0 1.05.26 1.86.68 2.5.13.2.32.37.45.6.19.32-.02.81-.12 1.16-.11.43-.12 1.01-.61 1.02-.21.01-.47-.14-.64-.24-1.31-.72-2.1-2.03-2.42-3.74-.2-1.03-.2-2.23 0-3.23.19-.97.54-1.86.93-2.58a9.276 9.276 0 013.46-3.57C5.56 1.02 6.82.56 8.35.34 8.86.26 9.38.23 9.95.21c1.67-.08 3.19.29 4.33.8 1.21.54 2.17 1.26 2.98 2.15.84.92 1.45 1.98 1.84 3.31.2.69.39 1.43.39 2.29 0 .85-.18 1.61-.3 2.37-.48 2.82-1.82 5.14-3.84 6.45-.49.32-1.08.62-1.76.81-.66.2-1.42.34-2.24.29-.79-.06-1.44-.27-1.98-.58-.54-.31-1-.68-1.32-1.25z" ></path>
  </symbol>
  <symbol xmlns="http://www.w3.org/2000/svg" viewBox="0 0 18 18" id="search-icon">
    <path d="M17.32 14.98c.3.3.48.71.48 1.17 0 .91-.74 1.65-1.65 1.65-.46 0-.87-.19-1.17-.48l-4.83-4.84c-.98.58-2.13.92-3.35.92A6.6 6.6 0 01.2 6.8C.2 3.15 3.15.2 6.8.2c3.65 0 6.6 2.95 6.6 6.6 0 1.22-.34 2.36-.92 3.35l4.84 4.83zM6.8 1.85c-2.73 0-4.95 2.22-4.95 4.95s2.22 4.95 4.95 4.95 4.95-2.22 4.95-4.95S9.53 1.85 6.8 1.85z" ></path>
  </symbol>
  <symbol xmlns="http://www.w3.org/2000/svg" viewBox="0 0 26 22" id="twitter">
    <path d="M17.51.6c2.04-.04 3.12.71 4.15 1.65.88-.08 2.02-.57 2.69-.91l.66-.36c-.39 1.04-.91 1.85-1.71 2.47-.17.14-.35.32-.57.41v.01c1.14-.01 2.08-.52 2.97-.8v.01c-.47.74-1.1 1.5-1.78 2.04-.27.22-.55.44-.82.65.01 1.21-.02 2.36-.24 3.38-1.32 5.89-4.79 9.89-10.29 11.61-1.98.61-5.17.87-7.43.31-1.13-.28-2.14-.6-3.09-1.01-.53-.23-1.02-.49-1.49-.77-.15-.09-.31-.19-.46-.28.51.01 1.11.15 1.68.06.51-.08 1.02-.06 1.5-.16 1.19-.26 2.24-.61 3.15-1.14.44-.26 1.11-.56 1.42-.93-.59.01-1.12-.13-1.56-.28-1.7-.6-2.69-1.71-3.33-3.36.51.05 2 .19 2.34-.11-.65-.03-1.27-.41-1.71-.69-1.37-.85-2.49-2.28-2.48-4.49.18.08.36.17.54.25.34.15.69.23 1.1.31.18.04.52.14.72.06h-.03c-.26-.3-.69-.51-.96-.84C1.61 6.6.78 4.92 1.3 2.93c.14-.51.35-.96.57-1.37.01 0 .02.01.02.01.11.22.33.37.48.55.45.56 1 1.06 1.56 1.5 1.92 1.5 3.65 2.42 6.42 3.1.7.17 1.52.31 2.36.31-.24-.69-.16-1.8.02-2.47.47-1.67 1.49-2.88 2.98-3.52.35-.16.75-.27 1.16-.36.22-.03.43-.05.64-.08z" ></path>
  </symbol>
    <symbol xmlns="http://www.w3.org/2000/svg" viewBox="0 0 24 24" id="back-arrow">
    <path d="M21 11H6.83l3.58-3.59L9 6l-6 6 6 6 1.41-1.41L6.83 13H21v-2z"></path>
  </symbol>
</svg>